<mxfile host="app.diagrams.net" agent="Mozilla/5.0 (Windows NT 10.0; Win64; x64) AppleWebKit/537.36 (KHTML, like Gecko) Chrome/139.0.0.0 Safari/537.36" version="28.0.9">
  <diagram name="Page-1" id="RzCiEBjRraIQC5C2OHAX">
    <mxGraphModel dx="2316" dy="729" grid="1" gridSize="10" guides="1" tooltips="1" connect="1" arrows="1" fold="1" page="1" pageScale="1" pageWidth="827" pageHeight="1169" math="0" shadow="0">
      <root>
        <mxCell id="0" />
        <mxCell id="1" parent="0" />
        <mxCell id="qAXU_QblyjmCjn5gIZvt-53" value="" style="rounded=1;whiteSpace=wrap;html=1;strokeColor=none;" parent="1" vertex="1">
          <mxGeometry x="-170" y="370" width="1020" height="640" as="geometry" />
        </mxCell>
        <mxCell id="XNeLHYFb71EVCrH0DWxz-149" value="" style="rounded=1;whiteSpace=wrap;html=1;fillColor=none;" parent="1" vertex="1">
          <mxGeometry x="10" y="390" width="818" height="600" as="geometry" />
        </mxCell>
        <mxCell id="4E9R00wdINm5NdS4aUtk-5" style="edgeStyle=orthogonalEdgeStyle;rounded=0;orthogonalLoop=1;jettySize=auto;html=1;entryX=0.5;entryY=0;entryDx=0;entryDy=0;" edge="1" parent="1" source="qAXU_QblyjmCjn5gIZvt-8" target="XNeLHYFb71EVCrH0DWxz-94">
          <mxGeometry relative="1" as="geometry" />
        </mxCell>
        <mxCell id="qAXU_QblyjmCjn5gIZvt-8" value="" style="rounded=0;whiteSpace=wrap;html=1;" parent="1" vertex="1">
          <mxGeometry x="650" y="410" width="140" height="120" as="geometry" />
        </mxCell>
        <mxCell id="qAXU_QblyjmCjn5gIZvt-10" value="Internal sybsystems" style="text;html=1;strokeColor=none;fillColor=none;align=center;verticalAlign=middle;whiteSpace=wrap;rounded=0;" parent="1" vertex="1">
          <mxGeometry x="638.5" y="530" width="163" height="30" as="geometry" />
        </mxCell>
        <mxCell id="XNeLHYFb71EVCrH0DWxz-137" style="edgeStyle=orthogonalEdgeStyle;rounded=0;orthogonalLoop=1;jettySize=auto;html=1;entryX=0;entryY=0.75;entryDx=0;entryDy=0;" parent="1" source="XNeLHYFb71EVCrH0DWxz-89" target="XNeLHYFb71EVCrH0DWxz-112" edge="1">
          <mxGeometry relative="1" as="geometry" />
        </mxCell>
        <mxCell id="XNeLHYFb71EVCrH0DWxz-89" value="&lt;div&gt;&lt;span style=&quot;background-color: transparent;&quot;&gt;&lt;b&gt;Command (Write)&lt;/b&gt;&lt;/span&gt;&lt;span style=&quot;background-color: transparent;&quot;&gt;&lt;b&gt;&amp;nbsp;&lt;/b&gt;&lt;/span&gt;&lt;/div&gt;&lt;div&gt;&lt;b&gt;microservices&lt;/b&gt;&lt;/div&gt;" style="rounded=0;whiteSpace=wrap;html=1;" parent="1" vertex="1">
          <mxGeometry x="308" y="700" width="276" height="94" as="geometry" />
        </mxCell>
        <mxCell id="XNeLHYFb71EVCrH0DWxz-93" value="" style="image;aspect=fixed;html=1;points=[];align=center;fontSize=12;image=img/lib/azure2/containers/Kubernetes_Services.svg;" parent="1" vertex="1">
          <mxGeometry x="506.5" y="720" width="68" height="60" as="geometry" />
        </mxCell>
        <mxCell id="XNeLHYFb71EVCrH0DWxz-94" value="&lt;div&gt;&lt;b&gt;Query (R&lt;/b&gt;&lt;span style=&quot;background-color: transparent;&quot;&gt;&lt;b&gt;ead)&amp;nbsp;&lt;/b&gt;&lt;/span&gt;&lt;/div&gt;&lt;div&gt;&lt;span style=&quot;background-color: transparent;&quot;&gt;&lt;b&gt;microservices&lt;/b&gt;&lt;/span&gt;&lt;/div&gt;" style="rounded=0;whiteSpace=wrap;html=1;" parent="1" vertex="1">
          <mxGeometry x="308" y="556" width="276" height="94" as="geometry" />
        </mxCell>
        <mxCell id="XNeLHYFb71EVCrH0DWxz-96" value="" style="image;aspect=fixed;html=1;points=[];align=center;fontSize=12;image=img/lib/azure2/containers/Kubernetes_Services.svg;" parent="1" vertex="1">
          <mxGeometry x="506.5" y="567" width="68" height="60" as="geometry" />
        </mxCell>
        <mxCell id="XNeLHYFb71EVCrH0DWxz-103" value="Kubernetes" style="text;html=1;strokeColor=none;fillColor=none;align=center;verticalAlign=middle;whiteSpace=wrap;rounded=0;" parent="1" vertex="1">
          <mxGeometry x="430.5" y="770" width="170" height="30" as="geometry" />
        </mxCell>
        <mxCell id="XNeLHYFb71EVCrH0DWxz-104" value="Kubernetes" style="text;html=1;strokeColor=none;fillColor=none;align=center;verticalAlign=middle;whiteSpace=wrap;rounded=0;" parent="1" vertex="1">
          <mxGeometry x="430.5" y="620" width="170" height="30" as="geometry" />
        </mxCell>
        <mxCell id="Z1b5xtA1G_lNGyBBYrnB-6" style="edgeStyle=orthogonalEdgeStyle;rounded=0;orthogonalLoop=1;jettySize=auto;html=1;entryX=1;entryY=0.5;entryDx=0;entryDy=0;" parent="1" source="XNeLHYFb71EVCrH0DWxz-112" target="XNeLHYFb71EVCrH0DWxz-94" edge="1">
          <mxGeometry relative="1" as="geometry" />
        </mxCell>
        <mxCell id="XNeLHYFb71EVCrH0DWxz-112" value="" style="rounded=0;whiteSpace=wrap;html=1;" parent="1" vertex="1">
          <mxGeometry x="650" y="600" width="110" height="130" as="geometry" />
        </mxCell>
        <mxCell id="XNeLHYFb71EVCrH0DWxz-113" value="" style="image;aspect=fixed;html=1;points=[];align=center;fontSize=12;image=img/lib/azure2/databases/Azure_Cosmos_DB.svg;" parent="1" vertex="1">
          <mxGeometry x="686.5" y="606" width="34" height="34" as="geometry" />
        </mxCell>
        <mxCell id="XNeLHYFb71EVCrH0DWxz-114" value="" style="image;aspect=fixed;html=1;points=[];align=center;fontSize=12;image=img/lib/azure2/databases/Azure_Cosmos_DB.svg;" parent="1" vertex="1">
          <mxGeometry x="711.5" y="634" width="32" height="32" as="geometry" />
        </mxCell>
        <mxCell id="XNeLHYFb71EVCrH0DWxz-115" value="" style="image;aspect=fixed;html=1;points=[];align=center;fontSize=12;image=img/lib/azure2/databases/Azure_Cosmos_DB.svg;" parent="1" vertex="1">
          <mxGeometry x="671.5" y="634" width="32" height="32" as="geometry" />
        </mxCell>
        <mxCell id="XNeLHYFb71EVCrH0DWxz-116" value="Cosmos DB Replica Set" style="text;html=1;strokeColor=none;fillColor=none;align=center;verticalAlign=middle;whiteSpace=wrap;rounded=0;" parent="1" vertex="1">
          <mxGeometry x="665" y="683" width="80" height="30" as="geometry" />
        </mxCell>
        <mxCell id="XNeLHYFb71EVCrH0DWxz-122" value="" style="rounded=0;whiteSpace=wrap;html=1;" parent="1" vertex="1">
          <mxGeometry x="90" y="830" width="140" height="120" as="geometry" />
        </mxCell>
        <mxCell id="XNeLHYFb71EVCrH0DWxz-123" value="" style="image;aspect=fixed;html=1;points=[];align=center;fontSize=12;image=img/lib/azure2/networking/Load_Balancers.svg;" parent="1" vertex="1">
          <mxGeometry x="120" y="836" width="72" height="72" as="geometry" />
        </mxCell>
        <mxCell id="XNeLHYFb71EVCrH0DWxz-124" value="Load balancer" style="text;html=1;strokeColor=none;fillColor=none;align=center;verticalAlign=middle;whiteSpace=wrap;rounded=0;" parent="1" vertex="1">
          <mxGeometry x="78.5" y="908" width="163" height="30" as="geometry" />
        </mxCell>
        <mxCell id="XNeLHYFb71EVCrH0DWxz-125" value="" style="image;html=1;image=img/lib/clip_art/computers/Software_128x128.png" parent="1" vertex="1">
          <mxGeometry x="680" y="430" width="80" height="80" as="geometry" />
        </mxCell>
        <mxCell id="XNeLHYFb71EVCrH0DWxz-135" style="edgeStyle=orthogonalEdgeStyle;rounded=0;orthogonalLoop=1;jettySize=auto;html=1;entryX=0.5;entryY=1;entryDx=0;entryDy=0;" parent="1" source="XNeLHYFb71EVCrH0DWxz-126" target="XNeLHYFb71EVCrH0DWxz-132" edge="1">
          <mxGeometry relative="1" as="geometry" />
        </mxCell>
        <mxCell id="XNeLHYFb71EVCrH0DWxz-126" value="&lt;b&gt;Message (Queue)&amp;nbsp;&lt;/b&gt;&lt;div&gt;&lt;b&gt;microservices&lt;/b&gt;&lt;/div&gt;" style="rounded=0;whiteSpace=wrap;html=1;" parent="1" vertex="1">
          <mxGeometry x="310" y="850" width="276" height="94" as="geometry" />
        </mxCell>
        <mxCell id="XNeLHYFb71EVCrH0DWxz-127" value="" style="verticalLabelPosition=bottom;html=1;verticalAlign=top;align=center;strokeColor=none;fillColor=#00BEF2;shape=mxgraph.azure.virtual_machine_feature;pointerEvents=1;" parent="1" vertex="1">
          <mxGeometry x="500.5" y="887" width="30" height="30" as="geometry" />
        </mxCell>
        <mxCell id="XNeLHYFb71EVCrH0DWxz-128" value="" style="verticalLabelPosition=bottom;html=1;verticalAlign=top;align=center;strokeColor=none;fillColor=#00BEF2;shape=mxgraph.azure.virtual_machine_feature;pointerEvents=1;" parent="1" vertex="1">
          <mxGeometry x="520.5" y="857" width="30" height="30" as="geometry" />
        </mxCell>
        <mxCell id="XNeLHYFb71EVCrH0DWxz-129" value="" style="verticalLabelPosition=bottom;html=1;verticalAlign=top;align=center;strokeColor=none;fillColor=#00BEF2;shape=mxgraph.azure.virtual_machine_feature;pointerEvents=1;" parent="1" vertex="1">
          <mxGeometry x="541.5" y="887" width="30" height="30" as="geometry" />
        </mxCell>
        <mxCell id="XNeLHYFb71EVCrH0DWxz-130" value="Set of virtual machines" style="text;whiteSpace=wrap;" parent="1" vertex="1">
          <mxGeometry x="443.5" y="917" width="194" height="40" as="geometry" />
        </mxCell>
        <mxCell id="XNeLHYFb71EVCrH0DWxz-131" value="" style="rounded=0;whiteSpace=wrap;html=1;" parent="1" vertex="1">
          <mxGeometry x="650" y="770" width="120" height="100" as="geometry" />
        </mxCell>
        <mxCell id="XNeLHYFb71EVCrH0DWxz-132" value="Azure Service Bus" style="text;html=1;strokeColor=none;fillColor=none;align=center;verticalAlign=middle;whiteSpace=wrap;rounded=0;" parent="1" vertex="1">
          <mxGeometry x="642.5" y="840" width="135" height="30" as="geometry" />
        </mxCell>
        <mxCell id="XNeLHYFb71EVCrH0DWxz-134" value="" style="image;sketch=0;aspect=fixed;html=1;points=[];align=center;fontSize=12;image=img/lib/mscae/Service_Bus.svg;" parent="1" vertex="1">
          <mxGeometry x="686.5" y="780" width="50" height="50" as="geometry" />
        </mxCell>
        <mxCell id="XNeLHYFb71EVCrH0DWxz-136" style="edgeStyle=orthogonalEdgeStyle;rounded=0;orthogonalLoop=1;jettySize=auto;html=1;entryX=0.899;entryY=0.178;entryDx=0;entryDy=0;entryPerimeter=0;" parent="1" source="XNeLHYFb71EVCrH0DWxz-131" target="XNeLHYFb71EVCrH0DWxz-103" edge="1">
          <mxGeometry relative="1" as="geometry" />
        </mxCell>
        <mxCell id="XNeLHYFb71EVCrH0DWxz-138" value="IoT&amp;nbsp;" style="text;html=1;strokeColor=none;fillColor=none;align=center;verticalAlign=middle;whiteSpace=wrap;rounded=0;" parent="1" vertex="1">
          <mxGeometry x="-114.5" y="950" width="84" height="30" as="geometry" />
        </mxCell>
        <mxCell id="XNeLHYFb71EVCrH0DWxz-140" style="edgeStyle=orthogonalEdgeStyle;rounded=0;orthogonalLoop=1;jettySize=auto;html=1;entryX=0.008;entryY=0.435;entryDx=0;entryDy=0;entryPerimeter=0;" parent="1" source="XNeLHYFb71EVCrH0DWxz-122" target="XNeLHYFb71EVCrH0DWxz-126" edge="1">
          <mxGeometry relative="1" as="geometry" />
        </mxCell>
        <mxCell id="4E9R00wdINm5NdS4aUtk-6" style="edgeStyle=orthogonalEdgeStyle;rounded=0;orthogonalLoop=1;jettySize=auto;html=1;entryX=0;entryY=0.5;entryDx=0;entryDy=0;" edge="1" parent="1" source="XNeLHYFb71EVCrH0DWxz-150" target="XNeLHYFb71EVCrH0DWxz-89">
          <mxGeometry relative="1" as="geometry" />
        </mxCell>
        <mxCell id="4E9R00wdINm5NdS4aUtk-9" style="edgeStyle=orthogonalEdgeStyle;rounded=0;orthogonalLoop=1;jettySize=auto;html=1;entryX=1;entryY=0.25;entryDx=0;entryDy=0;" edge="1" parent="1" source="XNeLHYFb71EVCrH0DWxz-150" target="Z1b5xtA1G_lNGyBBYrnB-18">
          <mxGeometry relative="1" as="geometry" />
        </mxCell>
        <mxCell id="XNeLHYFb71EVCrH0DWxz-150" value="" style="rounded=0;whiteSpace=wrap;html=1;" parent="1" vertex="1">
          <mxGeometry x="90" y="567" width="140" height="237" as="geometry" />
        </mxCell>
        <mxCell id="XNeLHYFb71EVCrH0DWxz-151" value="" style="image;aspect=fixed;html=1;points=[];align=center;fontSize=12;image=img/lib/azure2/networking/Application_Gateways.svg;" parent="1" vertex="1">
          <mxGeometry x="136" y="576" width="64" height="64" as="geometry" />
        </mxCell>
        <mxCell id="XNeLHYFb71EVCrH0DWxz-152" value="API gateway" style="text;html=1;strokeColor=none;fillColor=none;align=center;verticalAlign=middle;whiteSpace=wrap;rounded=0;" parent="1" vertex="1">
          <mxGeometry x="101.25" y="650" width="133.5" height="30" as="geometry" />
        </mxCell>
        <mxCell id="XNeLHYFb71EVCrH0DWxz-156" value="gRPC" style="text;html=1;strokeColor=none;fillColor=none;align=center;verticalAlign=middle;whiteSpace=wrap;rounded=0;" parent="1" vertex="1">
          <mxGeometry x="240" y="567" width="60" height="30" as="geometry" />
        </mxCell>
        <mxCell id="XNeLHYFb71EVCrH0DWxz-161" value="HTTPS" style="text;html=1;strokeColor=none;fillColor=none;align=center;verticalAlign=middle;whiteSpace=wrap;rounded=0;" parent="1" vertex="1">
          <mxGeometry x="14" y="709" width="60" height="30" as="geometry" />
        </mxCell>
        <mxCell id="Z1b5xtA1G_lNGyBBYrnB-19" style="edgeStyle=orthogonalEdgeStyle;rounded=0;orthogonalLoop=1;jettySize=auto;html=1;" parent="1" source="Z1b5xtA1G_lNGyBBYrnB-18" target="XNeLHYFb71EVCrH0DWxz-150" edge="1">
          <mxGeometry relative="1" as="geometry" />
        </mxCell>
        <mxCell id="Z1b5xtA1G_lNGyBBYrnB-18" value="" style="rounded=0;whiteSpace=wrap;html=1;" parent="1" vertex="1">
          <mxGeometry x="-150" y="625.5" width="140" height="120" as="geometry" />
        </mxCell>
        <mxCell id="Z1b5xtA1G_lNGyBBYrnB-20" value="" style="shape=image;html=1;verticalAlign=top;verticalLabelPosition=bottom;labelBackgroundColor=#ffffff;imageAspect=0;aspect=fixed;image=https://cdn4.iconfinder.com/data/icons/computer-and-web-2/500/Responsive-128.png" parent="1" vertex="1">
          <mxGeometry x="-149" y="622" width="128" height="128" as="geometry" />
        </mxCell>
        <mxCell id="Z1b5xtA1G_lNGyBBYrnB-26" style="edgeStyle=orthogonalEdgeStyle;rounded=0;orthogonalLoop=1;jettySize=auto;html=1;entryX=0;entryY=0.5;entryDx=0;entryDy=0;" parent="1" source="Z1b5xtA1G_lNGyBBYrnB-24" target="XNeLHYFb71EVCrH0DWxz-122" edge="1">
          <mxGeometry relative="1" as="geometry" />
        </mxCell>
        <mxCell id="Z1b5xtA1G_lNGyBBYrnB-24" value="" style="rounded=0;whiteSpace=wrap;html=1;" parent="1" vertex="1">
          <mxGeometry x="-130" y="830" width="120" height="120" as="geometry" />
        </mxCell>
        <mxCell id="Z1b5xtA1G_lNGyBBYrnB-25" value="" style="outlineConnect=0;dashed=0;verticalLabelPosition=bottom;verticalAlign=top;align=center;html=1;shape=mxgraph.aws3.alexa_enabled_device;fillColor=#5294CF;gradientColor=none;" parent="1" vertex="1">
          <mxGeometry x="-110" y="850" width="79.5" height="79.5" as="geometry" />
        </mxCell>
        <mxCell id="Z1b5xtA1G_lNGyBBYrnB-27" value="TCP" style="text;html=1;strokeColor=none;fillColor=none;align=center;verticalAlign=middle;whiteSpace=wrap;rounded=0;" parent="1" vertex="1">
          <mxGeometry x="-10" y="857" width="84" height="30" as="geometry" />
        </mxCell>
        <mxCell id="Z1b5xtA1G_lNGyBBYrnB-28" value=".NET MAUI &amp;amp; Blazor&lt;div&gt;applications&lt;/div&gt;" style="text;html=1;strokeColor=none;fillColor=none;align=center;verticalAlign=middle;whiteSpace=wrap;rounded=0;" parent="1" vertex="1">
          <mxGeometry x="-139" y="750" width="118" height="30" as="geometry" />
        </mxCell>
        <mxCell id="97TeZjc7ImTBjjB7zxNU-5" value="" style="image;aspect=fixed;html=1;points=[];align=center;fontSize=12;image=img/lib/azure2/other/Web_App_Database.svg;" parent="1" vertex="1">
          <mxGeometry x="126" y="690" width="68" height="68" as="geometry" />
        </mxCell>
        <mxCell id="97TeZjc7ImTBjjB7zxNU-6" value="" style="endArrow=none;html=1;rounded=0;exitX=0;exitY=0.5;exitDx=0;exitDy=0;entryX=1;entryY=0.5;entryDx=0;entryDy=0;" parent="1" source="XNeLHYFb71EVCrH0DWxz-150" target="XNeLHYFb71EVCrH0DWxz-150" edge="1">
          <mxGeometry width="50" height="50" relative="1" as="geometry">
            <mxPoint x="230" y="690" as="sourcePoint" />
            <mxPoint x="280" y="640" as="targetPoint" />
          </mxGeometry>
        </mxCell>
        <mxCell id="97TeZjc7ImTBjjB7zxNU-7" value="Centralized identity provider" style="text;html=1;strokeColor=none;fillColor=none;align=center;verticalAlign=middle;whiteSpace=wrap;rounded=0;" parent="1" vertex="1">
          <mxGeometry x="93.25" y="770" width="133.5" height="30" as="geometry" />
        </mxCell>
        <mxCell id="4E9R00wdINm5NdS4aUtk-1" style="edgeStyle=orthogonalEdgeStyle;rounded=0;orthogonalLoop=1;jettySize=auto;html=1;entryX=0.978;entryY=0.153;entryDx=0;entryDy=0;entryPerimeter=0;" edge="1" parent="1" source="XNeLHYFb71EVCrH0DWxz-94" target="XNeLHYFb71EVCrH0DWxz-150">
          <mxGeometry relative="1" as="geometry" />
        </mxCell>
      </root>
    </mxGraphModel>
  </diagram>
</mxfile>
